<?xml version="1.0" encoding="UTF-8"?>
<svg version="1.1" xmlns="http://www.w3.org/2000/svg" width="256" height="256">
<path d="M0 0 C1.19109375 0.49886719 1.19109375 0.49886719 2.40625 1.0078125 C29.5802679 13.23612055 47.64291038 38.32024866 58.2734375 65.22265625 C68.14576304 93.98601075 65.05373615 125.51563435 52.1953125 152.70703125 C49.09510189 158.9530032 45.29159811 164.49812948 41 170 C40.57315918 170.55026855 40.14631836 171.10053711 39.70654297 171.66748047 C21.8842615 194.40310754 -4.91903021 209.93835924 -33.6796875 213.72265625 C-39.75926597 214.23047986 -45.91643309 214.53516501 -52 214 C-54 212 -54 212 -54.25 208.5 C-54 205 -54 205 -52 203 C-49.82373047 202.5769043 -49.82373047 202.5769043 -47.1171875 202.32421875 C-45.62541992 202.1701355 -45.62541992 202.1701355 -44.10351562 202.01293945 C-43.03810547 201.90554443 -41.97269531 201.79814941 -40.875 201.6875 C-19.9929223 199.29360284 -1.42538568 192.3855398 15 179 C16.25876953 177.98679688 16.25876953 177.98679688 17.54296875 176.953125 C36.20390056 161.09856588 48.18220231 137.19845563 51 113 C52.81481518 82.32246383 44.89660843 56.26665001 24.625 32.78125 C7.54865969 14.68846086 -17.74175186 2.6582004 -42.69140625 1.6640625 C-70.98236529 1.23226694 -95.60362091 9.08071849 -117 28 C-117.58265625 28.56589844 -118.1653125 29.13179687 -118.765625 29.71484375 C-120.25 31.125 -120.25 31.125 -123 33 C-126.875 32.8125 -126.875 32.8125 -130 32 C-130.8125 28.875 -130.8125 28.875 -131 25 C-127.74579697 20.4660542 -123.95559752 17.02892324 -119.5625 13.625 C-118.95269287 13.15167236 -118.34288574 12.67834473 -117.71459961 12.19067383 C-83.34759062 -13.90990276 -38.96396018 -17.62134154 0 0 Z " fill="#000000" transform="translate(151,21)"/>
<path d="M0 0 C4.80870633 0.46348977 7.97923722 2.03738072 12.140625 4.375 C12.88787842 4.78435791 13.63513184 5.19371582 14.4050293 5.61547852 C20.60361884 9.0762295 26.34498836 12.93683774 31.890625 17.375 C32.91027344 18.18066406 33.92992187 18.98632812 34.98046875 19.81640625 C40.88719619 24.55945284 46.15412709 29.46285583 50.890625 35.375 C51.52355469 36.12136719 52.15648437 36.86773437 52.80859375 37.63671875 C66.04143743 53.53148843 75.1546808 72.28853897 79.890625 92.375 C80.05433594 93.06609863 80.21804687 93.75719727 80.38671875 94.46923828 C84.71991801 113.69557178 84.38592831 134.21816133 79.890625 153.375 C79.7349707 154.05900879 79.57931641 154.74301758 79.41894531 155.44775391 C71.10942766 190.63466348 48.07227135 219.33723504 17.890625 238.375 C-0.76899958 249.8888966 -22.9880912 256.54564083 -44.921875 256.5625 C-45.77974609 256.57474609 -46.63761719 256.58699219 -47.52148438 256.59960938 C-48.7502832 256.60250977 -48.7502832 256.60250977 -50.00390625 256.60546875 C-50.74487549 256.60957764 -51.48584473 256.61368652 -52.24926758 256.61791992 C-54.109375 256.375 -54.109375 256.375 -56.109375 254.375 C-56.421875 250.875 -56.421875 250.875 -56.109375 247.375 C-52.8263771 245.18633474 -51.36158376 245.01825996 -47.5078125 244.69921875 C-46.38608643 244.59641602 -45.26436035 244.49361328 -44.10864258 244.38769531 C-42.91263428 244.28038086 -41.71662598 244.17306641 -40.484375 244.0625 C-29.5177439 242.94942995 -19.41632408 241.29748265 -9.109375 237.375 C-8.4390625 237.12234375 -7.76875 236.8696875 -7.078125 236.609375 C8.59495242 230.55386781 21.45501543 221.5550086 33.890625 210.375 C34.54417969 209.80523437 35.19773437 209.23546875 35.87109375 208.6484375 C52.59482623 193.15614376 62.52724682 171.10148388 67.890625 149.375 C68.14457031 148.36179688 68.39851563 147.34859375 68.66015625 146.3046875 C75.32532597 114.94482419 67.38884737 81.78910658 50.40234375 55.04296875 C37.51387033 35.68191531 19.45057812 21.48790883 -1.4765625 11.75 C-4.109375 10.375 -4.109375 10.375 -5.109375 8.375 C-5.296875 5.375 -5.296875 5.375 -5.109375 2.375 C-3.109375 0.375 -3.109375 0.375 0 0 Z " fill="#000000" transform="translate(153.109375,-0.375)"/>
<path d="M0 0 C3.49239532 2.85279966 6.78461906 5.83920957 10 9 C11.03060547 10.01126953 11.03060547 10.01126953 12.08203125 11.04296875 C21.38780637 20.82596311 28.00529323 33.1699418 32 46 C32.31839844 47.00417969 32.63679688 48.00835937 32.96484375 49.04296875 C38.97805757 71.79342289 35.37477146 96.77180157 24.21875 117.2734375 C19.88756515 124.64676409 14.94095377 130.87407148 9 137 C8.46117187 137.61230469 7.92234375 138.22460938 7.3671875 138.85546875 C-7.27467595 154.93208766 -30.54804459 162.58271539 -51.64453125 164.203125 C-52.71767578 164.22632813 -52.71767578 164.22632813 -53.8125 164.25 C-54.90498047 164.28867187 -54.90498047 164.28867187 -56.01953125 164.328125 C-58.59200677 163.90191604 -59.44244992 163.05750442 -61 161 C-61.4375 158 -61.4375 158 -61 155 C-57.58536983 151.30229168 -53.41270615 151.44133803 -48.6875 151.125 C-27.8772063 149.23239128 -9.31849284 139.69460139 4.5703125 124.1171875 C18.12629438 106.88500714 24.35720661 86.80578626 23 65 C20.41877912 43.43149334 10.59558129 25.16328468 -6 11 C-22.53949612 -1.72721832 -43.13013912 -8.18713627 -64 -6 C-68.75279042 -5.20097737 -73.40873686 -4.07227476 -78.07421875 -2.875 C-81.45206654 -2.05517753 -84.50809751 -1.64923918 -88 -2 C-90 -4.1875 -90 -4.1875 -91 -7 C-90.625 -9.625 -90.625 -9.625 -89 -12 C-86.56726563 -13.40557986 -84.65039369 -14.1855561 -82 -15 C-80.7934375 -15.41958984 -80.7934375 -15.41958984 -79.5625 -15.84765625 C-52.60201019 -23.72334281 -22.02261943 -16.7004864 0 0 Z " fill="#000000" transform="translate(158,50)"/>
<path d="M0 0 C11.55011399 1.01415635 23.07241193 12.21429655 30.2578125 20.6796875 C42.7437889 37.37780052 47.06190635 56.19904942 44.8125 76.87109375 C42.47396207 89.95791176 36.11860583 102.43459672 27.203125 112.28125 C26.62304688 112.95285156 26.04296875 113.62445313 25.4453125 114.31640625 C15.04606448 125.60763998 -1.04948166 133.74784143 -16.49609375 134.44921875 C-17.81222656 134.45566406 -19.12835938 134.46210938 -20.484375 134.46875 C-21.16048828 134.48099609 -21.83660156 134.49324219 -22.53320312 134.50585938 C-24.28934927 134.5111016 -26.04498622 134.40357123 -27.796875 134.28125 C-29.796875 132.28125 -29.796875 132.28125 -30.109375 128.78125 C-30.00625 127.62625 -29.903125 126.47125 -29.796875 125.28125 C-26.92026173 123.36350782 -25.97835762 122.9863129 -22.734375 122.60546875 C-21.94272949 122.50258545 -21.15108398 122.39970215 -20.33544922 122.29370117 C-19.49771973 122.18646729 -18.65999023 122.0792334 -17.796875 121.96875 C-6.1719036 120.29570702 2.74835289 116.25637433 12.203125 109.28125 C13.02039063 108.68441406 13.83765625 108.08757812 14.6796875 107.47265625 C25.86794301 97.75653963 31.82161524 82.75265127 33.046875 68.30078125 C33.91885872 52.62386702 28.40856535 38.04710038 18.203125 26.28125 C12.37276916 20.14610322 6.12682504 15.76631677 -1.328125 11.7890625 C-3.796875 10.28125 -3.796875 10.28125 -5.796875 7.28125 C-5.37229434 2.92929826 -4.72579419 0.47521953 0 0 Z " fill="#000000" transform="translate(126.796875,57.71875)"/>
<path d="M0 0 C13.29980844 4.54456495 23.73985375 12.73086981 30.30078125 25.26953125 C35.91382697 37.33408595 36.46232331 51.03769774 32.234375 63.640625 C26.75339217 76.87295592 17.93687772 85.97102555 4.96875 92.01953125 C-1.66829987 94.72055289 -8.76467698 96.18805302 -15.94921875 95.20703125 C-16.93921875 94.54703125 -17.92921875 93.88703125 -18.94921875 93.20703125 C-19.26171875 89.70703125 -19.26171875 89.70703125 -18.94921875 86.20703125 C-16.17144701 83.42925951 -13.80418415 83.52795803 -9.94921875 82.89453125 C0.70774633 80.92582059 9.33643522 77.06996801 16.05078125 68.20703125 C21.5774198 58.28107843 23.86364247 48.53964036 21.40234375 37.2265625 C17.98075987 26.8594558 11.73429838 19.26924088 2.05078125 14.20703125 C-3.40696415 11.84744361 -9.03477757 10.69531971 -14.8828125 9.734375 C-16.94921875 9.20703125 -16.94921875 9.20703125 -18.94921875 7.20703125 C-19.32421875 4.26953125 -19.32421875 4.26953125 -18.94921875 1.20703125 C-13.84701259 -3.95464118 -6.37148339 -1.71312732 0 0 Z " fill="#000000" transform="translate(115.94921875,75.79296875)"/>
</svg>
